<svg width="16" height="16" viewBox="0 0 16 16" fill="none" xmlns="http://www.w3.org/2000/svg">
<path d="M5.667 16C6.37409 15.9992 7.05199 15.718 7.55198 15.218C8.05196 14.718 8.33321 14.0401 8.334 13.333V10.666H5.667C4.95991 10.6668 4.28201 10.9481 3.78202 11.448C3.28204 11.948 3.00079 12.6259 3 13.333C3.00079 14.0401 3.28204 14.718 3.78202 15.218C4.28201 15.718 4.95991 15.9992 5.667 16Z" fill="#0ACF83"/>
<path d="M3 8.00001C3.00079 7.29292 3.28204 6.61502 3.78202 6.11503C4.28201 5.61504 4.95991 5.3338 5.667 5.33301H8.334V10.666H5.667C4.96008 10.6652 4.28233 10.3841 3.78238 9.88434C3.28242 9.38457 3.00106 8.70692 3 8.00001Z" fill="#A259FF"/>
<path d="M3 2.667C3.00079 1.95991 3.28204 1.28201 3.78202 0.782023C4.28201 0.282036 4.95991 0.000794036 5.667 0L8.334 0V5.333H5.667C4.96008 5.33221 4.28233 5.0511 3.78238 4.55133C3.28242 4.05156 3.00106 3.37392 3 2.667Z" fill="#F24E1E"/>
<path d="M8.33398 0H11.001C11.7081 0.000794036 12.386 0.282036 12.886 0.782023C13.3859 1.28201 13.6672 1.95991 13.668 2.667C13.6672 3.37409 13.3859 4.05199 12.886 4.55198C12.386 5.05196 11.7081 5.33321 11.001 5.334H8.33398V0Z" fill="#FF7262"/>
<path d="M13.667 8.00001C13.6662 8.7071 13.3849 9.385 12.885 9.88498C12.385 10.385 11.7071 10.6662 11 10.667C10.2931 10.6659 9.61543 10.3846 9.11565 9.88463C8.61588 9.38467 8.33478 8.70692 8.33398 8.00001C8.33478 7.29292 8.61602 6.61502 9.11601 6.11503C9.616 5.61504 10.2939 5.3338 11.001 5.33301C11.7079 5.33407 12.3855 5.61542 12.8853 6.11538C13.3851 6.61534 13.6662 7.29309 13.667 8.00001Z" fill="#1ABCFE"/>
</svg>
