<svg width="24" height="24" viewBox="0 0 24 24" fill="none" xmlns="http://www.w3.org/2000/svg">
<path fill-rule="evenodd" clip-rule="evenodd" d="M13 14V23H11V14H13Z" fill="#00A656"/>
<path fill-rule="evenodd" clip-rule="evenodd" d="M15 14H18C19.933 14 21.5 15.567 21.5 17.5C21.5 19.433 19.933 21 18 21H17V23H15V14ZM17 19H18C18.8284 19 19.5 18.3284 19.5 17.5C19.5 16.6716 18.8284 16 18 16H17V19Z" fill="#00A656"/>
<path fill-rule="evenodd" clip-rule="evenodd" d="M3 14H9V15.8028L5.53518 21H9V23H3V21.1972L6.46482 16H3V14Z" fill="#00A656"/>
<path fill-rule="evenodd" clip-rule="evenodd" d="M11.0784 1C10.2828 1 9.51972 1.31607 8.95711 1.87868L3.87868 6.95711C3.31607 7.51972 3 8.28278 3 9.07843V12H21V4C21 2.34315 19.6569 1 18 1H11.0784ZM11 9H5L11 3V9Z" fill="#00A656"/>
</svg>
