<svg width="24" height="24" viewBox="0 0 24 24" fill="none" xmlns="http://www.w3.org/2000/svg">
<g clip-path="url(#clip0_5843_74251)">
<path d="M22.4904 11.9259C22.4904 11.0873 22.4224 10.4753 22.2751 9.8407H12.6992V13.6257H18.32C18.2067 14.5663 17.5948 15.9829 16.2349 16.9348L16.2158 17.0615L19.2435 19.407L19.4533 19.428C21.3798 17.6487 22.4904 15.0309 22.4904 11.9259Z" fill="#4285F4"/>
<path d="M12.6993 21.8983C15.4531 21.8983 17.7649 20.9917 19.4535 19.4279L16.235 16.9347C15.3738 17.5353 14.2179 17.9546 12.6993 17.9546C10.0022 17.9546 7.71309 16.1754 6.89708 13.7163L6.77747 13.7265L3.62918 16.1629L3.58801 16.2774C5.2652 19.6091 8.71028 21.8983 12.6993 21.8983Z" fill="#34A853"/>
<path d="M6.89689 13.7164C6.68158 13.0818 6.55697 12.4018 6.55697 11.6993C6.55697 10.9966 6.68158 10.3167 6.88556 9.68207L6.87986 9.54691L3.69213 7.07129L3.58783 7.1209C2.89658 8.50348 2.49994 10.0561 2.49994 11.6993C2.49994 13.3425 2.89658 14.895 3.58783 16.2775L6.89689 13.7164Z" fill="#FBBC05"/>
<path d="M12.6993 5.44367C14.6145 5.44367 15.9064 6.27094 16.643 6.96227L19.5214 4.1518C17.7536 2.50859 15.4531 1.5 12.6993 1.5C8.71028 1.5 5.2652 3.78914 3.58801 7.12086L6.88575 9.68203C7.71309 7.22289 10.0022 5.44367 12.6993 5.44367Z" fill="#EB4335"/>
</g>
<defs>
<clipPath id="clip0_5843_74251">
<rect width="20" height="20.4688" fill="white" transform="translate(2.50012 1.5)"/>
</clipPath>
</defs>
</svg>
