<svg width="24" height="24" viewBox="0 0 24 24" fill="none" xmlns="http://www.w3.org/2000/svg">
<path d="M18.4587 22H5.54125C3.58375 22 2 20.3762 2 18.3675V5.6325C2 3.62375 3.58375 2 5.54125 2H18.4575C20.4163 2 22 3.62375 22 5.6325V18.3675C22 20.3762 20.4162 22 18.4587 22Z" fill="#D8A1FF"/>
<path d="M17.8687 20.75H6.13875C4.5475 20.75 3.25 19.4175 3.25 17.7812V6.21875C3.25 4.5825 4.5475 3.25 6.13875 3.25H17.8613C19.4613 3.25 20.75 4.5825 20.75 6.21875V17.7738C20.7575 19.4175 19.4612 20.75 17.8687 20.75Z" fill="#1A0732"/>
<path d="M15.9775 11.8798L16.5525 11.8635C16.5525 11.806 16.5675 11.7648 16.5675 11.7235C16.5675 11.2798 16.3649 10.456 15.5574 10.456C14.8112 10.456 14.4937 11.1473 14.4162 11.8798H15.9775ZM14.4012 13.0073C14.4162 14.1185 14.9137 14.8673 16.095 14.8673C16.5537 14.8673 16.9487 14.801 17.3612 14.6123C17.4149 14.5873 17.455 14.596 17.455 14.6698V15.6985C17.455 15.781 17.4312 15.8223 17.3775 15.8635C16.9662 16.0773 16.4537 16.176 15.8162 16.176C13.7662 16.176 12.9962 14.571 12.9962 12.786C12.9962 10.8435 13.9437 9.25603 15.6137 9.25603C17.3075 9.25603 17.8975 10.7623 17.8975 11.9885C17.8975 12.3835 17.8737 12.7048 17.835 12.861C17.82 12.9273 17.7962 12.951 17.7337 12.9685C17.5787 12.9935 17.1199 13.026 16.4362 13.026H14.4V13.0098L14.4012 13.0073ZM10.2374 12.1685L9.29745 8.29979H9.28245C9.11995 9.26228 8.69245 10.8923 8.3737 12.1673H10.2374V12.1685ZM8.0537 13.501L7.43995 15.961C7.42495 16.0273 7.4012 16.051 7.3237 16.051H6.18245C6.10495 16.051 6.0887 16.026 6.10495 15.9273L8.3112 7.75604C8.34995 7.60854 8.3737 7.49229 8.3887 7.08104C8.3887 7.02354 8.41245 6.99854 8.4512 6.99854H10.0824C10.1362 6.99854 10.1599 7.01479 10.1762 7.08104L12.6462 15.9435C12.6612 16.0098 12.6462 16.0498 12.5837 16.0498H11.3012C11.2387 16.0498 11.1999 16.0248 11.1849 15.9673L10.5474 13.4985H8.0537V13.501Z" fill="#D8A1FF"/>
</svg>
