<svg width="24" height="24" viewBox="0 0 24 24" fill="none" xmlns="http://www.w3.org/2000/svg">
<path d="M12.4235 13.6342C12.461 12.9679 12.7873 12.3804 13.2798 11.9629C13.7635 11.5542 14.4135 11.3042 15.1235 11.3042C15.8335 11.3042 16.4835 11.5542 16.9673 11.9629C17.2167 12.1682 17.4213 12.4224 17.5686 12.7098C17.7159 12.9973 17.8026 13.3119 17.8235 13.6342C17.861 14.3192 17.586 14.9567 17.1023 15.4279C16.5697 15.9363 15.8597 16.2166 15.1235 16.2092C14.3385 16.2092 13.636 15.9079 13.1435 15.4279C12.661 14.9567 12.3848 14.3192 12.4235 13.6342Z" fill="#005385"/>
<path d="M8.12352 14.9841C8.12852 15.2441 8.21227 15.7516 8.33602 16.1478C8.6057 17.0013 9.05878 17.7855 9.66352 18.4453C10.3118 19.1583 11.1032 19.7265 11.986 20.1128C12.9373 20.5341 13.9673 20.7491 15.0348 20.7466C16.1023 20.7441 17.1335 20.5266 18.0835 20.1028C18.9873 19.6978 19.7685 19.1316 20.4048 18.4278C21.0084 17.7654 21.4609 16.9798 21.731 16.1253C21.8625 15.7078 21.9463 15.2767 21.981 14.8403C22.0135 14.4153 21.9998 13.9891 21.9398 13.5641C21.8223 12.7353 21.5348 11.9566 21.0935 11.2478C20.6885 10.5966 20.1685 10.0266 19.5498 9.54533L19.551 9.54408L13.3048 4.74658C12.8773 4.41908 12.1885 4.42033 11.7385 4.73533C11.2885 5.05033 11.231 5.58158 11.636 5.91408L11.6348 5.91533L14.241 8.03533L6.29852 8.04408C5.63102 8.04408 5.00102 8.47658 4.87477 9.02033C4.74727 9.57533 5.19352 10.0341 5.87477 10.0378L5.87352 10.0403L9.89977 10.0328L2.71602 15.5466L2.68852 15.5666C2.01102 16.0853 1.79227 16.9491 2.21852 17.4953C2.65227 18.0503 3.57227 18.0516 4.25727 17.4978L8.17852 14.2903C8.17852 14.2903 8.12102 14.7241 8.12602 14.9841H8.12352ZM18.1973 16.4341C17.3898 17.2578 16.2598 17.7241 15.0348 17.7266C13.8098 17.7291 12.6785 17.2666 11.871 16.4441C11.476 16.0428 11.186 15.5828 11.0073 15.0916C10.8323 14.6091 10.7635 14.0978 10.8085 13.5816C10.8523 13.0766 11.001 12.5953 11.2423 12.1591C11.4869 11.7204 11.8132 11.3326 12.2035 11.0166C13.0056 10.3716 14.0055 10.0229 15.0348 10.0291C16.081 10.0278 17.0798 10.3716 17.866 11.0091C18.266 11.3353 18.591 11.7203 18.826 12.1478C19.0686 12.586 19.2163 13.0702 19.2598 13.5691C19.3048 14.0853 19.236 14.5966 19.061 15.0791C18.8823 15.5716 18.5923 16.0316 18.1973 16.4341Z" fill="#FF7021"/>
</svg>
