<svg width="24" height="24" viewBox="0 0 24 24" fill="none" xmlns="http://www.w3.org/2000/svg">
<path d="M18.6663 2H5.33375C4.45 2.0025 3.60375 2.355 2.97875 2.97875C2.35375 3.6025 2.0025 4.45 2 5.33375V18.6663C2 20.5 3.5 22 5.33375 22H18.6663C20.5 22 22 20.5 22 18.6663V5.33375C22 3.5 20.5 2 18.6663 2ZM16.8438 16.0463C16.678 16.4483 16.4136 16.8021 16.075 17.075C15.725 17.3625 15.2812 17.5912 14.735 17.7625C14.1887 17.9337 13.5425 18.0162 12.7913 18.0162H7.43125V6.34625H13.1C14.1475 6.34625 14.9875 6.58375 15.6175 7.065C16.2475 7.54625 16.565 8.2675 16.565 9.24C16.565 9.8275 16.4213 10.33 16.1338 10.7488C15.8463 11.1675 15.4338 11.4863 14.8988 11.7113V11.7487C15.6113 11.8987 16.1613 12.2363 16.5238 12.7613C16.8863 13.2863 17.0738 13.9488 17.0738 14.7488C17.0738 15.1988 16.9863 15.6237 16.8238 16.0237L16.8438 16.0463ZM14.5312 13.1713C14.19 12.8588 13.7088 12.7062 13.0888 12.7062H9.4875V16.3463H13.1C13.7188 16.3463 14.2025 16.1863 14.5425 15.8625C14.8825 15.5388 15.0587 15.085 15.0587 14.4962C15.0562 13.9212 14.8838 13.4775 14.5425 13.1713H14.5312ZM14.0312 10.8175C14.36 10.5387 14.5225 10.1375 14.5225 9.615C14.5225 9.0275 14.3762 8.61125 14.0812 8.3725C13.7862 8.13375 13.3625 8.0125 12.8063 8.0125H9.475V11.2325H12.8075C13.2975 11.2325 13.7075 11.0912 14.0325 10.8175H14.0312Z" fill="#101010"/>
</svg>
