<svg width="24" height="24" viewBox="0 0 24 24" fill="none" xmlns="http://www.w3.org/2000/svg">
<path d="M9.08375 22C9.96761 21.999 10.815 21.6475 11.44 21.0225C12.065 20.3975 12.4165 19.5501 12.4175 18.6663V15.3325H9.08375C8.19989 15.3335 7.35251 15.6851 6.72753 16.31C6.10254 16.935 5.75099 17.7824 5.75 18.6663C5.75099 19.5501 6.10254 20.3975 6.72753 21.0225C7.35251 21.6475 8.19989 21.999 9.08375 22Z" fill="#0ACF83"/>
<path d="M5.75 11.9998C5.75099 11.1159 6.10254 10.2685 6.72753 9.64354C7.35251 9.01856 8.19989 8.66701 9.08375 8.66602H12.4175V15.3323H9.08375C8.20011 15.3313 7.35292 14.9799 6.72797 14.3552C6.10302 13.7305 5.75132 12.8834 5.75 11.9998Z" fill="#A259FF"/>
<path d="M5.75 5.33375C5.75099 4.44989 6.10254 3.60251 6.72753 2.97753C7.35251 2.35254 8.19989 2.00099 9.08375 2L12.4175 2V8.66625H9.08375C8.20011 8.66526 7.35292 8.31388 6.72797 7.68916C6.10302 7.06445 5.75132 6.21739 5.75 5.33375Z" fill="#F24E1E"/>
<path d="M12.4175 2H15.7512C16.6351 2.00099 17.4825 2.35254 18.1075 2.97753C18.7324 3.60251 19.084 4.44989 19.085 5.33375C19.084 6.21761 18.7324 7.06499 18.1075 7.68997C17.4825 8.31496 16.6351 8.66651 15.7512 8.6675H12.4175V2Z" fill="#FF7262"/>
<path d="M19.0837 11.9998C19.0827 12.8836 18.7312 13.731 18.1062 14.356C17.4812 14.981 16.6338 15.3325 15.75 15.3335C14.8663 15.3322 14.0193 14.9805 13.3946 14.3555C12.7699 13.7306 12.4185 12.8834 12.4175 11.9998C12.4185 11.1159 12.77 10.2685 13.395 9.64354C14.02 9.01856 14.8674 8.66701 15.7512 8.66602C16.6349 8.66734 17.4819 9.01904 18.1066 9.64399C18.7314 10.2689 19.0827 11.1161 19.0837 11.9998Z" fill="#1ABCFE"/>
</svg>
