<svg width="24" height="24" viewBox="0 0 24 24" fill="none" xmlns="http://www.w3.org/2000/svg">
<path d="M12 22C17.5228 22 22 17.5228 22 12C22 6.47715 17.5228 2 12 2C6.47715 2 2 6.47715 2 12C2 17.5228 6.47715 22 12 22Z" fill="url(#paint0_linear_5417_11966)"/>
<path fill-rule="evenodd" clip-rule="evenodd" d="M8.14123 11.9587L9.84998 13.6175C10.35 14.1025 10.3562 14.9025 9.86248 15.395C9.37873 15.8775 8.59623 15.8825 8.10498 15.4075L5.52623 12.9037C5.45806 12.8375 5.39767 12.7637 5.34623 12.6837C5.18235 12.4451 5.10636 12.1571 5.1312 11.8687C5.15605 11.5803 5.28021 11.3095 5.48248 11.1025L7.99998 8.52874C8.2326 8.29636 8.54741 8.165 8.87621 8.16311C9.20501 8.16122 9.52131 8.28895 9.75659 8.51864C9.99187 8.74833 10.1272 9.06147 10.1332 9.39022C10.1392 9.71896 10.0154 10.0368 9.78873 10.275L8.14123 11.9587ZM15.8362 12L14.17 10.3825C14.0516 10.2671 13.9573 10.1293 13.8926 9.97721C13.8278 9.8251 13.7939 9.66166 13.7927 9.49635C13.7915 9.33103 13.8232 9.16713 13.8858 9.01412C13.9484 8.86112 14.0408 8.72206 14.1575 8.60499C14.6412 8.12249 15.425 8.11749 15.915 8.59374L18.495 11.1C18.77 11.3662 18.895 11.7287 18.87 12.0812C18.8525 12.3812 18.7262 12.675 18.4937 12.9012L15.9125 15.4075C15.6741 15.6345 15.3559 15.7583 15.0268 15.752C14.6977 15.7458 14.3844 15.61 14.1548 15.3742C13.9252 15.1383 13.7979 14.8215 13.8005 14.4923C13.8031 14.1632 13.9354 13.8484 14.1687 13.6162L15.8362 12Z" fill="white"/>
<defs>
<linearGradient id="paint0_linear_5417_11966" x1="12" y1="2" x2="12" y2="22" gradientUnits="userSpaceOnUse">
<stop stop-color="#2D68FF"/>
<stop offset="1" stop-color="#2450BF"/>
</linearGradient>
</defs>
</svg>
