<svg width="24" height="24" viewBox="0 0 24 24" fill="none" xmlns="http://www.w3.org/2000/svg">
<path d="M6.52001 6.43479C7.06501 6.8777 7.26959 6.84396 8.29334 6.77562L17.9438 6.19604C18.1488 6.19604 17.9783 5.99187 17.91 5.95812L16.3075 4.79937C16.0004 4.56104 15.5913 4.28812 14.8071 4.35604L5.46293 5.03687C5.12209 5.07062 5.05418 5.24104 5.19001 5.3777L6.52001 6.43479ZM6.99959 8.73562V18.7877C6.99959 19.3277 7.27001 19.5302 7.87959 19.4969L18.4054 18.8894C19.015 18.856 19.0829 18.484 19.0829 18.0452V8.06062C19.0829 7.6227 18.9138 7.38604 18.5413 7.41979L7.54126 8.06062C7.13543 8.09437 6.99959 8.29729 6.99959 8.73562ZM17.6 8.96854C17.6692 9.27937 17.6 9.58979 17.2888 9.62479L16.7713 9.7277V17.3165C16.3221 17.5577 15.9079 17.6956 15.5629 17.6956C15.0104 17.6956 14.8717 17.5231 14.4579 17.006L11.0746 11.694V16.8335L12.1454 17.0748C12.1454 17.0748 12.1454 17.6956 11.2813 17.6956L8.90001 17.8335C8.83084 17.6956 8.90001 17.3506 9.14126 17.2819L9.76293 17.1094V10.3144L8.90001 10.2452C8.83043 9.93437 9.00293 9.48645 9.48668 9.45145L12.0413 9.27937L15.5625 14.6606V9.9002L14.6646 9.79729C14.5954 9.41729 14.8717 9.14146 15.2167 9.10771L17.6 8.96854ZM4.71418 4.12604L14.3492 3.41645C15.5325 3.3152 15.8371 3.38312 16.5804 3.92312L19.6563 6.08479C20.1638 6.45645 20.3329 6.55729 20.3329 6.9627V18.819C20.3329 19.5619 20.0625 20.0015 19.1158 20.0685L7.92626 20.7444C7.21584 20.7781 6.87751 20.6769 6.50584 20.204L4.24084 17.2652C3.83501 16.7244 3.66626 16.3198 3.66626 15.8465V5.30729C3.66626 4.69979 3.93668 4.19312 4.71418 4.12604Z" fill="#101010"/>
</svg>
