<svg width="29" height="28" viewBox="0 0 29 28" fill="none" xmlns="http://www.w3.org/2000/svg">
<g clip-path="url(#clip0_5716_18238)">
<path d="M13.0208 8C12.8835 7.99999 12.7507 8.04898 12.6463 8.13815C12.542 8.22732 12.4728 8.35081 12.4514 8.4864L11.5052 14.4864L10.6358 19.9997L10.6353 20.0043L10.6363 19.9997L11.5057 14.4864C11.5499 14.2062 11.7912 14 12.0747 14H14.8468C17.6366 14 20.0045 11.9646 20.4369 9.20651C20.4699 8.99695 20.4875 8.7894 20.4915 8.58457V8.58425H20.4912C19.7822 8.21228 18.9497 8 18.0374 8H13.0208Z" fill="#001C64"/>
<path d="M20.491 8.58496C20.4871 8.78979 20.4693 8.99756 20.4364 9.20711C20.004 11.9652 17.6361 14.0006 14.8463 14.0006H12.0742C11.7906 14.0006 11.5494 14.2068 11.5052 14.487L10.6358 20.0003L10.0902 23.4593C10.0797 23.5261 10.0837 23.5944 10.1021 23.6595C10.1206 23.7245 10.1528 23.7849 10.1968 23.8363C10.2407 23.8877 10.2953 23.929 10.3567 23.9573C10.4182 23.9856 10.485 24.0003 10.5526 24.0003H13.5615C13.6988 24.0003 13.8316 23.9513 13.936 23.8621C14.0403 23.773 14.1095 23.6495 14.1309 23.5139L14.9235 18.487C14.9679 18.2068 15.2093 18.0003 15.4929 18.0003H17.2646C20.0544 18.0003 22.422 15.965 22.8544 13.2071C23.1614 11.2492 22.1761 9.46811 20.491 8.58496Z" fill="#0070E0"/>
<path d="M9.60263 4C9.46531 4 9.3325 4.04904 9.22812 4.13827C9.12374 4.2275 9.05465 4.35107 9.03329 4.48672L6.67224 19.4587C6.66168 19.5255 6.66573 19.5938 6.68412 19.659C6.7025 19.7241 6.73478 19.7844 6.77874 19.8359C6.82269 19.8873 6.87728 19.9286 6.93873 19.957C7.00018 19.9853 7.06704 20 7.13471 20H10.6361L11.5055 14.4867L12.4518 8.48671C12.4732 8.35112 12.5423 8.22763 12.6467 8.13846C12.7511 8.04929 12.8838 8.0003 13.0211 8.00031H18.0376C18.95 8.00031 19.7826 8.21291 20.4916 8.58435C20.5399 6.07338 18.468 4 15.619 4H9.60263Z" fill="#003087"/>
</g>
<defs>
<clipPath id="clip0_5716_18238">
<rect width="16.2444" height="20" fill="white" transform="translate(6.6665 4)"/>
</clipPath>
</defs>
</svg>
