<svg width="24" height="24" viewBox="0 0 24 24" fill="none" xmlns="http://www.w3.org/2000/svg">
<path d="M18.4587 22H5.54125C3.58375 22 2 20.3762 2 18.3675V5.6325C2 3.62375 3.58375 2 5.54125 2H18.4575C20.4163 2 22 3.62375 22 5.6325V18.3675C22 20.3762 20.4162 22 18.4587 22Z" fill="#00C8FF"/>
<path d="M17.8687 20.75H6.13875C4.5475 20.75 3.25 19.4175 3.25 17.7812V6.21875C3.25 4.5825 4.5475 3.25 6.13875 3.25H17.8613C19.4613 3.25 20.75 4.5825 20.75 6.21875V17.7738C20.7575 19.4175 19.4612 20.75 17.8687 20.75Z" fill="#001D26"/>
<path d="M6.73376 7.13875C6.73376 7.08125 6.85001 7.04 6.91751 7.04L9.06751 7C11.375 7 12.275 8.245 12.275 9.8425C12.275 11.9225 10.7413 12.8162 8.85876 12.8162C8.54251 12.8162 8.43376 12.8 8.20876 12.8V15.945C8.20876 16.01 8.18376 16.0437 8.10876 16.0437H6.83376C6.76751 16.0437 6.73376 16.0188 6.73376 15.945V7.13875ZM8.21751 11.4875C8.40876 11.5038 8.55876 11.5038 8.89251 11.5038C9.86751 11.5038 10.7838 11.1675 10.7838 9.865C10.7838 8.825 10.125 8.3 9.01751 8.3L8.21751 8.325V11.4875ZM15.3838 10.5125C14.725 10.5125 14.5 10.84 14.5 11.11C14.5 11.405 14.65 11.61 15.5338 12.06C16.8425 12.6825 17.25 13.28 17.25 14.1575C17.25 15.4675 16.2338 16.1725 14.8588 16.1725C14.1338 16.1725 13.5088 16.025 13.15 15.82C13.0913 15.795 13.0838 15.7538 13.0838 15.6888V14.485C13.0838 14.4025 13.125 14.3787 13.1838 14.42C13.7088 14.7562 14.3088 14.9037 14.8588 14.9037C15.5175 14.9037 15.7925 14.6338 15.7925 14.265C15.7925 13.97 15.6013 13.7075 14.7588 13.2825C13.575 12.725 13.0838 12.16 13.0838 11.2188C13.0838 10.1625 13.925 9.28625 15.3838 9.28625C16.1 9.28625 16.6 9.3925 16.875 9.515C16.9413 9.55625 16.9588 9.62125 16.9588 9.67875V10.8012C16.9588 10.8662 16.9175 10.9075 16.8338 10.8837C16.4675 10.655 15.925 10.515 15.3838 10.515V10.5125Z" fill="#00C8FF"/>
</svg>
