<svg width="24" height="24" viewBox="0 0 24 24" fill="none" xmlns="http://www.w3.org/2000/svg">
<path d="M6.05 9.71365L12 21.3749L2 9.7124L6.05 9.71365Z" fill="#EA6C00"/>
<path d="M17.95 9.71365L12 21.3749L22 9.7124L17.95 9.71365Z" fill="#EA6C00"/>
<path d="M6.05005 9.71365H17.9488L12 21.3749L6.05005 9.71365Z" fill="#FDAD00"/>
<path d="M12 3.25L6.3638 3.84625L6.05005 9.7125L12 3.25Z" fill="#FDD231"/>
<path d="M12 3.25L17.6363 3.84625L17.95 9.7125L12 3.25Z" fill="#FDD231"/>
<path d="M22 9.71244L17.6362 3.84619L17.95 9.71244H22ZM2 9.71244L6.36375 3.84619L6.05125 9.71244H2Z" fill="#FDAD00"/>
<path d="M12 3.25L6.05005 9.7125H17.9488L12 3.25Z" fill="#FEEEB7"/>
</svg>
