<svg width="24" height="24" viewBox="0 0 24 24" fill="none" xmlns="http://www.w3.org/2000/svg">
<g clip-path="url(#clip0_5417_10824)">
<path d="M17.0857 19.7195C14.7299 21.0804 11.4907 21.2202 8.23169 19.8235C5.59298 18.7009 3.40353 16.7356 2 14.4903C2.6737 15.0516 3.45966 15.5009 4.30176 15.8936C7.66733 17.4711 11.0322 17.3631 13.4002 15.8978C13.3987 15.8961 13.3977 15.8951 13.3967 15.8936C10.0282 13.3111 7.16496 9.94264 5.0317 7.19201C4.58237 6.74284 4.24552 6.18141 3.90867 5.67616C6.49116 8.03405 10.5896 11.0093 12.049 11.8518C8.96167 8.59539 6.21054 4.5535 6.32261 4.66556C11.207 9.60599 15.7548 12.4131 15.7548 12.4131C15.9051 12.4979 16.0213 12.5686 16.1146 12.6317C16.213 12.3813 16.2994 12.1214 16.372 11.8518C17.158 8.98863 16.26 5.73219 14.2948 3.0376C18.842 5.78848 21.5371 10.9533 20.414 15.2764C20.3846 15.393 20.3529 15.508 20.3185 15.6211C20.3316 15.6368 20.3448 15.6529 20.3579 15.6696C22.6033 18.4768 21.9859 21.452 21.7053 20.8906C20.4871 18.507 18.2321 19.236 17.0857 19.7195Z" fill="#101010"/>
</g>
<defs>
<clipPath id="clip0_5417_10824">
<rect width="20" height="20" fill="white" transform="translate(2 2)"/>
</clipPath>
</defs>
</svg>
