<svg width="24" height="24" viewBox="0 0 24 24" fill="none" xmlns="http://www.w3.org/2000/svg">
<path d="M3.13 7.13375C4.7975 4.03 8.1425 2 12 2C14.4975 2 16.7787 3.06125 18.53 4.56C18.0287 4.46375 17.4825 4.5725 16.9325 4.88625C15.6438 5.62375 15.2225 7.71125 16.8937 8.76C17.9375 9.41125 18.3088 11.04 18.2738 12.035C18.2388 13.03 15.8475 17.6088 15.8475 17.6088L13.5188 9.63125L13.4388 8.91C13.4388 8.70625 13.5063 8.4575 13.6313 8.315C13.7188 8.22 13.85 8.02125 14.0062 8.02125H15.11V7.13375H9.11V8.02125H9.29625C9.4925 8.02125 9.685 8.285 9.87 8.47375C10.0888 8.7 10.365 9.54875 10.6988 10.43L11.5713 13.2975L9.69125 17.6325L7.62875 8.9675C7.62875 8.9675 7.69 8.37375 7.81375 8.2725C7.895 8.2025 8.02 8.02 8.165 8.02H8.22125V7.1325L3.13 7.13375ZM4.30625 8.64C4.30625 8.64 3.82125 8.02125 3.30625 8.02125H2.7825C2.27875 9.13 2 10.6187 2 11.9837C2 16.0887 4.5225 19.61 8.1175 21.11L4.30625 8.64ZM20.6063 7.055C20.7963 7.955 20.7562 9.04625 20.3862 10.2463C19.4187 13.37 17.0262 18.9887 16.1 21.13C19.5762 19.58 22 16.1213 22 12.0988C22 10.2563 21.49 8.5325 20.605 7.055H20.6063ZM12.2025 15.4888L9.645 21.72C10.4 21.9013 11.1888 22 12 22C12.8207 22 13.6384 21.9001 14.435 21.7025L12.2025 15.4888Z" fill="#101010"/>
</svg>
