<svg width="40" height="40" viewBox="0 0 40 40" fill="none" xmlns="http://www.w3.org/2000/svg">
<path d="M28.889 5.88905C26.3334 4.27794 23.2779 3.3335 20.0001 3.3335C16.7223 3.3335 13.6668 4.27794 11.1112 5.88905V34.0557C13.6668 35.6668 16.7223 36.6113 20.0001 36.6113C23.2779 36.6113 26.3334 35.6668 28.889 34.0557V5.88905Z" fill="#F9F9F9"/>
<path d="M28.8889 5.88916V34.0558C33.5556 31.1669 36.6667 25.8336 36.6667 19.9447C36.6667 14.0558 33.5556 8.8336 28.8889 5.88916Z" fill="#D90026"/>
<path d="M11.1112 5.88916C6.44449 8.8336 3.33337 14.1669 3.33337 20.0003C3.33337 25.8336 6.44449 31.1669 11.1112 34.1114V5.88916Z" fill="#D90026"/>
<path d="M26.0556 19.7778C25.8334 19.6667 25.7778 19.4445 25.8334 19.3334L26.3889 17.3334L24.4445 17.7223C24.3889 17.7223 24.1667 17.7223 24.1112 17.3334L23.9445 16.6667L22.6112 18.2223C22.6112 18.2223 21.7223 19.1667 22 17.7223L22.5556 14.6667L21.5 15.2223C21.4445 15.2223 21.2223 15.2778 20.9445 14.7223L20 12.7778L19 14.6112C18.7223 15.1667 18.5 15.1112 18.4445 15.1112L17.3889 14.5556L17.9445 17.6112C18.2223 19.0556 17.3334 18.1112 17.3334 18.1112L16 16.5556L15.8334 17.2223C15.7223 17.6112 15.5556 17.6112 15.5 17.6112L13.5556 17.2223L14.1112 19.2223C14.1112 19.3889 14.1112 19.5556 13.8889 19.6667L13.3334 20.0001C13.3334 20.0001 15.5556 21.7778 16.2778 22.3889C16.4445 22.5001 16.7778 22.8334 16.6667 23.2223L16.3889 24.0001L19.4445 23.5556C19.6112 23.5556 19.9445 23.5556 19.8889 24.0556L19.7223 27.2223H20.2778L20.1112 24.0556C20.1112 23.5556 20.4445 23.5556 20.5556 23.5556L23.6112 24.0001L23.3334 23.2223C23.2223 22.8334 23.5556 22.5001 23.7223 22.3889C24.4445 21.7778 26.6667 20.0001 26.6667 20.0001L26.0556 19.7778Z" fill="#D90026"/>
</svg>
