<svg width="40" height="40" viewBox="0 0 40 40" fill="none" xmlns="http://www.w3.org/2000/svg">
<path d="M19.9999 37.7777C10.1816 37.7777 2.22217 29.8183 2.22217 19.9999C2.22217 10.1816 10.1816 2.22217 19.9999 2.22217C29.8183 2.22217 37.7777 10.1816 37.7777 19.9999C37.7777 29.8183 29.8183 37.7777 19.9999 37.7777Z" fill="#D90026"/>
<path d="M36.6584 13.7777C34.1362 7.02809 27.6293 2.22217 19.9999 2.22217C12.3706 2.22217 5.86367 7.02809 3.34147 13.7777L36.6584 13.7777Z" fill="black"/>
<path d="M3.34147 26.2222C5.86367 32.9718 12.3706 37.7777 19.9999 37.7777C27.6293 37.7777 34.1362 32.9718 36.6584 26.2222L3.34147 26.2222Z" fill="#FFDB44"/>
</svg>
