<svg width="40" height="40" viewBox="0 0 40 40" fill="none" xmlns="http://www.w3.org/2000/svg">
<path d="M19.5556 37.7777C9.73721 37.7777 1.77783 29.8183 1.77783 19.9999C1.77783 10.1816 9.73721 2.22217 19.5556 2.22217C29.374 2.22217 37.3334 10.1816 37.3334 19.9999C37.3334 29.8183 29.374 37.7777 19.5556 37.7777Z" fill="#FFDB44"/>
<path d="M36.2141 13.7777C33.6919 7.02809 27.185 2.22217 19.5556 2.22217C11.9262 2.22217 5.41933 7.02809 2.89714 13.7777L36.2141 13.7777Z" fill="#D90026"/>
<path d="M2.89714 26.2222C5.41933 32.9718 11.9262 37.7777 19.5556 37.7777C27.185 37.7777 33.6919 32.9718 36.2141 26.2222L2.89714 26.2222Z" fill="#D90026"/>
</svg>
