<svg width="40" height="40" viewBox="0 0 40 40" fill="none" xmlns="http://www.w3.org/2000/svg">
<path d="M37.3334 19.9999C37.3334 29.8183 29.374 37.7777 19.5556 37.7777C9.73721 37.7777 1.77783 29.8183 1.77783 19.9999C1.77783 10.1816 9.73721 2.22217 19.5556 2.22217C29.374 2.22217 37.3334 10.1816 37.3334 19.9999Z" fill="#0052B5"/>
<path d="M15.1112 11.9999V2.78225C15.8351 2.59592 16.5769 2.45405 17.3334 2.35971C18.0614 2.26893 18.803 2.22217 19.5556 2.22217C20.3082 2.22217 21.0498 2.26893 21.7778 2.35971C22.5344 2.45405 23.2761 2.59592 24.0001 2.78225V14.4444L31.5556 6.88304C32.3701 7.62856 33.558 9.11561 34.2223 9.99995L28.4445 15.5555H36.7733C36.9596 16.2794 37.1015 17.0212 37.1958 17.7777C37.2866 18.5057 37.3334 19.2474 37.3334 19.9999C37.3334 20.7525 37.2866 21.4942 37.1958 22.2222C37.1015 22.9787 36.9596 23.7205 36.7733 24.4444H27.1112L33.7791 30.6666C32.8235 31.9389 31.7011 33.0788 30.4445 34.0538L24.0001 27.5555V37.2176C23.2761 37.404 22.5344 37.5458 21.7778 37.6402C21.0498 37.731 20.3082 37.7777 19.5556 37.7777C18.803 37.7777 18.0614 37.731 17.3334 37.6402C16.5769 37.5458 15.8351 37.404 15.1112 37.2176L15.1112 25.7777L7.77783 33.3169C6.7833 32.4366 5.88809 31.4467 5.11117 30.366L11.5556 24.4444H2.33791C2.15159 23.7205 2.00971 22.9787 1.91537 22.2222C1.8246 21.4942 1.77783 20.7525 1.77783 19.9999C1.77783 19.2474 1.82459 18.5057 1.91537 17.7777C2.00971 17.0212 2.15158 16.2794 2.33791 15.5555H11.7778L5.33339 9.33155C6.31975 8.01871 7.48365 6.84688 8.78945 5.8517L15.1112 11.9999Z" fill="white"/>
<path d="M15.1112 15.5555L6.9978 7.4162C6.56878 7.84434 6.16152 8.29428 5.77783 8.76421L12.8889 15.5555H15.1112Z" fill="#D90026"/>
<path d="M24.0001 15.5555L32.1134 7.41619C32.5424 7.84433 32.9497 8.29427 33.3334 8.76421L26.2223 15.5555H24.0001Z" fill="#D90026"/>
<path d="M24.0001 24.597L32.1134 32.7363C32.5424 32.3081 32.9497 31.8582 33.3334 31.3883L26.2223 24.597H24.0001Z" fill="#D90026"/>
<path d="M15.1112 24.597L6.9978 32.7363C6.56878 32.3081 6.16152 31.8582 5.77783 31.3883L12.8889 24.597H15.1112Z" fill="#D90026"/>
<path d="M1.91537 17.7777C1.82459 18.5057 1.77783 19.2474 1.77783 19.9999C1.77783 20.7525 1.8246 21.4942 1.91537 22.2222H17.3334V37.6402C18.0614 37.731 18.803 37.7777 19.5556 37.7777C20.3082 37.7777 21.0498 37.731 21.7778 37.6402V22.2222H37.1958C37.2866 21.4942 37.3334 20.7525 37.3334 19.9999C37.3334 19.2474 37.2866 18.5057 37.1958 17.7777H21.7778V2.35971C20.908 2.22886 20.4619 2.22217 19.5556 2.22217C18.803 2.22217 18.0614 2.26893 17.3334 2.35971V17.7777H1.91537Z" fill="#D90026"/>
</svg>
