<svg width="40" height="40" viewBox="0 0 40 40" fill="none" xmlns="http://www.w3.org/2000/svg">
<circle cx="19.5556" cy="19.9999" r="17.7778" fill="#F2F0F2"/>
<mask id="mask0_5609_17754" style="mask-type:alpha" maskUnits="userSpaceOnUse" x="1" y="2" width="37" height="36">
<circle cx="19.5556" cy="19.9999" r="17.7778" fill="#FCFCFC"/>
</mask>
<g mask="url(#mask0_5609_17754)">
<rect x="7.55566" y="33.7778" width="24.4444" height="4.44444" fill="#D90026"/>
<rect x="7.55566" y="33.7778" width="24.4444" height="4.44444" fill="#D90026"/>
<rect x="2.22229" y="24.8887" width="35.1111" height="4.44444" fill="#D90026"/>
<rect x="2.22229" y="24.8887" width="35.1111" height="4.44444" fill="#D90026"/>
<rect x="2.22229" y="15.5557" width="35.1111" height="4.44444" fill="#D90026"/>
<rect x="2.22229" y="15.5557" width="35.1111" height="4.44444" fill="#D90026"/>
<rect x="2.22229" y="6.6665" width="35.1111" height="4.44444" fill="#D90026"/>
<rect x="2.22229" y="6.6665" width="35.1111" height="4.44444" fill="#D90026"/>
<rect x="1.77783" y="2.22217" width="18.2222" height="17.7778" fill="#0052B5"/>
<path d="M16.4445 17.1111L15.1112 17.7777L15.5556 16.4444L14.6667 15.5555H16.0001L16.4445 14.2222L17.1112 15.5555H18.2223L17.3334 16.4444L17.7779 17.7777L16.4445 17.1111Z" fill="#EFEFEF"/>
<path d="M10.2222 17.1111L8.8889 17.7777L9.33335 16.4444L8.44446 15.5555H9.77779L10.2222 14.2222L10.8889 15.5555H12L11.1111 16.4444L11.5556 17.7777L10.2222 17.1111Z" fill="#EFEFEF"/>
<path d="M4.00007 17.1111L2.66673 17.7777L3.11118 16.4444L2.22229 15.5555H3.55562L4.00007 14.2222L4.66673 15.5555H5.77785L4.88896 16.4444L5.3334 17.7777L4.00007 17.1111Z" fill="#EFEFEF"/>
<path d="M16.4445 12.2224L15.1112 12.8891L15.5556 11.5557L14.6667 10.6668H16.0001L16.4445 9.3335L17.1112 10.6668H18.2223L17.3334 11.5557L17.7779 12.8891L16.4445 12.2224Z" fill="#EFEFEF"/>
<path d="M16.4445 7.33323L15.1112 7.99989L15.5556 6.66656L14.6667 5.77767H16.0001L16.4445 4.44434L17.1112 5.77767H18.2223L17.3334 6.66656L17.7779 7.99989L16.4445 7.33323Z" fill="#EFEFEF"/>
<path d="M16.4445 2.44455L15.1112 3.11122L15.5556 1.77789L14.6667 0.888998H16.0001L16.4445 -0.444336L17.1112 0.888998H18.2223L17.3334 1.77789L17.7779 3.11122L16.4445 2.44455Z" fill="#EFEFEF"/>
<path d="M10.2222 7.33323L8.8889 7.99989L9.33335 6.66656L8.44446 5.77767H9.77779L10.2222 4.44434L10.8889 5.77767H12L11.1111 6.66656L11.5556 7.99989L10.2222 7.33323Z" fill="#EFEFEF"/>
<path d="M10.2222 12.2224L8.8889 12.8891L9.33335 11.5557L8.44446 10.6668H9.77779L10.2222 9.3335L10.8889 10.6668H12L11.1111 11.5557L11.5556 12.8891L10.2222 12.2224Z" fill="#EFEFEF"/>
<path d="M4.00007 12.2224L2.66673 12.8891L3.11118 11.5557L2.22229 10.6668H3.55562L4.00007 9.3335L4.66673 10.6668H5.77785L4.88896 11.5557L5.3334 12.8891L4.00007 12.2224Z" fill="#EFEFEF"/>
</g>
</svg>
